<svg xmlns="http://www.w3.org/2000/svg" viewBox="0 0 25 25" fill="none"> <path d="M21.428575 0H3.571425C1.5987725 0 0 1.5987725 0 3.571425V21.428575C0 23.401225 1.5987725 25 3.571425 25H21.428575C23.401225 25 25 23.401225 25 21.428575V3.571425C25 1.5987725 23.39845 0 21.428575 0ZM18.96205 10.033475L11.8192 17.17635C11.512275 17.48325 11.116075 17.633925 10.714275 17.633925C10.3125 17.633925 9.91405 17.4822 9.608825 17.177L6.0374 13.605575C5.428575 12.9951 5.428575 12.004575 6.0374 11.394075C6.647875 10.7836 7.6384 10.7836 8.248875 11.394075L10.714275 13.8616L16.752225 7.82365C17.362725 7.213175 18.353225 7.213175 18.963725 7.82365C19.5703 8.431925 19.5703 9.425225 18.96205 10.033475Z" fill="#60B35E"></path> </svg>