<?xml version="1.0" encoding="UTF-8"?> <svg xmlns="http://www.w3.org/2000/svg" width="34" height="34" viewBox="0 0 34 34" fill="none"> <path d="M22.6665 5.66602H25.4998C26.2513 5.66602 26.972 5.96453 27.5033 6.49588C28.0347 7.02723 28.3332 7.7479 28.3332 8.49935V28.3327C28.3332 29.0841 28.0347 29.8048 27.5033 30.3362C26.972 30.8675 26.2513 31.166 25.4998 31.166H8.49984C7.74839 31.166 7.02772 30.8675 6.49637 30.3362C5.96501 29.8048 5.6665 29.0841 5.6665 28.3327V8.49935C5.6665 7.7479 5.96501 7.02723 6.49637 6.49588C7.02772 5.96453 7.74839 5.66602 8.49984 5.66602H11.3332" stroke="#60B35E" stroke-width="2" stroke-linecap="round" stroke-linejoin="round"></path> <path d="M21.2502 2.83398H12.7502C11.9678 2.83398 11.3335 3.46825 11.3335 4.25065V7.08398C11.3335 7.86639 11.9678 8.50065 12.7502 8.50065H21.2502C22.0326 8.50065 22.6668 7.86639 22.6668 7.08398V4.25065C22.6668 3.46825 22.0326 2.83398 21.2502 2.83398Z" stroke="#60B35E" stroke-width="2" stroke-linecap="round" stroke-linejoin="round"></path> </svg> 