<?xml version="1.0" encoding="UTF-8"?> <svg xmlns="http://www.w3.org/2000/svg" width="1550" height="230" viewBox="0 0 1550 230" fill="none"> <path d="M75.469 58.4347V79.9507H33.089V172.535H10.595V58.4347H75.469ZM148.254 172.535L141.408 151.997H95.9306L89.0846 172.535H64.7976L104.733 58.4347H132.606L172.704 172.535H148.254ZM103.103 130.97H134.399L118.751 84.3517L103.103 130.97ZM244.256 113.529C255.122 119.288 260.556 128.307 260.556 140.587C260.556 150.801 256.698 159.06 248.983 165.363C241.267 171.665 231.324 174.817 219.154 174.817C197.964 174.817 183.783 165.852 176.611 147.922L196.008 137.001C199.485 148.085 207.2 153.627 219.154 153.627C225.348 153.627 230.075 152.323 233.335 149.715C236.595 147.107 238.225 143.575 238.225 139.12C238.225 134.664 236.595 131.133 233.335 128.525C230.183 125.917 225.619 124.613 219.643 124.613H205.462V104.564H216.219C221.87 104.564 226.271 103.368 229.423 100.978C232.574 98.4783 234.15 95.1097 234.15 90.8717C234.15 86.6337 232.791 83.3193 230.075 80.9287C227.358 78.4293 223.337 77.1797 218.013 77.1797C208.233 77.1797 201.387 81.961 197.475 91.5237L178.404 80.4397C186.119 64.2483 199.322 56.1527 218.013 56.1527C229.314 56.1527 238.551 59.1953 245.723 65.2807C252.895 71.366 256.481 79.4073 256.481 89.4047C256.481 99.6193 252.406 107.661 244.256 113.529ZM371.159 157.702C359.64 169.112 345.622 174.817 329.105 174.817C312.587 174.817 298.569 169.112 287.051 157.702C275.641 146.183 269.936 132.111 269.936 115.485C269.936 98.8587 275.641 84.8407 287.051 73.4307C298.569 61.912 312.587 56.1527 329.105 56.1527C345.622 56.1527 359.64 61.912 371.159 73.4307C382.677 84.8407 388.437 98.8587 388.437 115.485C388.437 132.111 382.677 146.183 371.159 157.702ZM302.862 142.38C309.925 149.334 318.673 152.812 329.105 152.812C339.537 152.812 348.284 149.334 355.348 142.38C362.411 135.316 365.943 126.351 365.943 115.485C365.943 104.618 362.411 95.653 355.348 88.5897C348.284 81.5263 339.537 77.9947 329.105 77.9947C318.673 77.9947 309.925 81.5263 302.862 88.5897C295.798 95.653 292.267 104.618 292.267 115.485C292.267 126.351 295.798 135.316 302.862 142.38ZM447.93 101.63C459.014 101.63 468.088 104.944 475.151 111.573C482.215 118.093 485.746 126.569 485.746 137.001C485.746 147.541 482.215 156.126 475.151 162.755C468.088 169.275 459.014 172.535 447.93 172.535H404.246V58.4347H475.966V79.9507H426.74V101.63H447.93ZM447.93 151.508C452.386 151.508 456.08 150.258 459.014 147.759C461.948 145.151 463.415 141.565 463.415 137.001C463.415 132.437 461.948 128.905 459.014 126.406C456.08 123.906 452.386 122.657 447.93 122.657H426.74V151.508H447.93ZM522.089 151.019H570.174V172.535H499.595V58.4347H569.359V79.9507H522.089V104.238H565.284V125.428H522.089V151.019ZM661.499 58.4347V79.9507H630.692V172.535H608.198V79.9507H577.554V58.4347H661.499ZM763.537 157.702C752.018 169.112 738 174.817 721.483 174.817C704.965 174.817 690.947 169.112 679.429 157.702C668.019 146.183 662.314 132.111 662.314 115.485C662.314 98.8587 668.019 84.8407 679.429 73.4307C690.947 61.912 704.965 56.1527 721.483 56.1527C738 56.1527 752.018 61.912 763.537 73.4307C775.055 84.8407 780.815 98.8587 780.815 115.485C780.815 132.111 775.055 146.183 763.537 157.702ZM695.24 142.38C702.303 149.334 711.051 152.812 721.483 152.812C731.915 152.812 740.662 149.334 747.726 142.38C754.789 135.316 758.321 126.351 758.321 115.485C758.321 104.618 754.789 95.653 747.726 88.5897C740.662 81.5263 731.915 77.9947 721.483 77.9947C711.051 77.9947 702.303 81.5263 695.24 88.5897C688.176 95.653 684.645 104.618 684.645 115.485C684.645 126.351 688.176 135.316 695.24 142.38ZM861.498 58.4347H883.829V172.535H861.498V125.265H819.118V172.535H796.624V58.4347H819.118V103.749H861.498V58.4347Z" fill="#23242A"></path> <path d="M1331.82 157.702C1320.31 169.112 1306.29 174.817 1289.77 174.817C1273.25 174.817 1259.24 169.112 1247.72 157.702C1236.31 146.183 1230.6 132.111 1230.6 115.485C1230.6 98.8587 1236.31 84.8407 1247.72 73.4307C1259.24 61.912 1273.25 56.1527 1289.77 56.1527C1306.29 56.1527 1320.31 61.912 1331.82 73.4307C1343.34 84.8407 1349.1 98.8587 1349.1 115.485C1349.1 132.111 1343.34 146.183 1331.82 157.702ZM1263.53 142.38C1270.59 149.334 1279.34 152.812 1289.77 152.812C1300.2 152.812 1308.95 149.334 1316.01 142.38C1323.08 135.316 1326.61 126.351 1326.61 115.485C1326.61 104.618 1323.08 95.653 1316.01 88.5897C1308.95 81.5263 1300.2 77.9947 1289.77 77.9947C1279.34 77.9947 1270.59 81.5263 1263.53 88.5897C1256.46 95.653 1252.93 104.618 1252.93 115.485C1252.93 126.351 1256.46 135.316 1263.53 142.38ZM1450.16 58.4347V172.535H1427.67V79.9507H1387.41V172.535H1364.91V58.4347H1450.16ZM1546.87 58.4347V79.9507H1516.07V172.535H1493.57V79.9507H1462.93V58.4347H1546.87Z" fill="#23242A"></path> <path fill-rule="evenodd" clip-rule="evenodd" d="M946.906 116.751C946.124 115.97 946.124 114.703 946.906 113.922L1058.77 2.12827C1059.55 1.34779 1060.81 1.34779 1061.59 2.12827L1081.77 22.2895C1082.4 22.9191 1083.47 22.4729 1083.47 21.5821V13.3523C1083.47 12.2477 1084.37 11.3523 1085.47 11.3523H1095.51C1096.62 11.3523 1097.51 12.2477 1097.51 13.3523V37.1943C1097.51 37.725 1097.72 38.2338 1098.1 38.609L1116.17 56.6698C1116.95 57.451 1116.95 58.718 1116.17 59.4991L1084.65 90.9982C1083.87 91.7787 1082.6 91.7787 1081.82 90.9982L1061.71 70.9009C1060.93 70.1204 1059.67 70.1204 1058.89 70.9009L1015.91 113.853L1014.42 115.336L981.371 148.37C980.59 149.15 979.324 149.15 978.543 148.37L946.906 116.751Z" fill="#60626C"></path> <path fill-rule="evenodd" clip-rule="evenodd" d="M1038.64 139.673C1037.86 138.893 1036.59 138.893 1035.81 139.673L1004.17 171.292C1003.39 172.073 1003.39 173.34 1004.17 174.121L1058.63 228.544C1059.41 229.325 1060.67 229.325 1061.46 228.544L1173.32 116.751C1174.1 115.97 1174.1 114.703 1173.32 113.922L1141.8 82.4213C1141.02 81.6408 1139.75 81.6408 1138.97 82.4213L1106.04 115.336L1103.14 118.229L1061.57 159.772C1060.79 160.552 1059.53 160.552 1058.75 159.772L1038.64 139.673Z" fill="#60B35E"></path> </svg> 