<?xml version="1.0" encoding="UTF-8"?> <svg xmlns="http://www.w3.org/2000/svg" width="34" height="34" viewBox="0 0 34 34" fill="none"> <path d="M29.75 14.166C29.75 24.0827 17 32.5827 17 32.5827C17 32.5827 4.25 24.0827 4.25 14.166C4.25 10.7845 5.5933 7.54149 7.98439 5.1504C10.3755 2.75932 13.6185 1.41602 17 1.41602C20.3815 1.41602 23.6245 2.75932 26.0156 5.1504C28.4067 7.54149 29.75 10.7845 29.75 14.166Z" stroke="#60B35E" stroke-width="2" stroke-linecap="round" stroke-linejoin="round"></path> <path d="M17 18.416C19.3472 18.416 21.25 16.5132 21.25 14.166C21.25 11.8188 19.3472 9.91602 17 9.91602C14.6528 9.91602 12.75 11.8188 12.75 14.166C12.75 16.5132 14.6528 18.416 17 18.416Z" stroke="#60B35E" stroke-width="2" stroke-linecap="round" stroke-linejoin="round"></path> </svg> 