<?xml version="1.0" encoding="UTF-8"?> <svg xmlns="http://www.w3.org/2000/svg" width="34" height="34" viewBox="0 0 34 34" fill="none"> <path d="M9.91659 15.584L15.5833 2.83398C16.7104 2.83398 17.7914 3.28175 18.5885 4.07878C19.3855 4.87581 19.8333 5.95681 19.8333 7.08398V12.7507H27.8516C28.2623 12.746 28.6691 12.8307 29.0438 12.9989C29.4185 13.1671 29.7522 13.4147 30.0217 13.7246C30.2912 14.0346 30.4901 14.3994 30.6046 14.7938C30.7192 15.1883 30.7466 15.6029 30.6849 16.009L28.7299 28.759C28.6275 29.4346 28.2843 30.0504 27.7636 30.493C27.243 30.9356 26.5799 31.175 25.8966 31.1673H9.91659M9.91659 15.584V31.1673M9.91659 15.584H5.66659C4.91514 15.584 4.19447 15.8825 3.66312 16.4138C3.13176 16.9452 2.83325 17.6659 2.83325 18.4173V28.334C2.83325 29.0854 3.13176 29.8061 3.66312 30.3375C4.19447 30.8688 4.91514 31.1673 5.66659 31.1673H9.91659" stroke="#60B35E" stroke-width="2" stroke-linecap="round" stroke-linejoin="round"></path> </svg> 